<svg width="1284" height="768" viewBox="0 0 1284 768" fill="none" xmlns="http://www.w3.org/2000/svg">
<path d="M1283.93 166.651H884V-3.91959e-05H1283.93V166.651Z" fill="#E19C99"/>
<path d="M841.926 166.651H442V-3.91959e-05H841.926V166.651Z" fill="#E19C99"/>
<path d="M399.926 166.651H0V-3.91959e-05H399.926V166.651Z" fill="#E19C99"/>
<path d="M1283.93 366.651H884V200H1283.93V366.651Z" fill="#E19C99"/>
<path d="M841.926 366.651H442V200H841.926V366.651Z" fill="#E19C99"/>
<path d="M399.926 367.651H0V201H399.926V367.651Z" fill="#E19C99"/>
<path d="M1283.93 567.651H884V401H1283.93V567.651Z" fill="#E19C99"/>
<path d="M841.926 567.651H442V401H841.926V567.651Z" fill="#E19C99"/>
<path d="M399.926 567.651H0V401H399.926V567.651Z" fill="#E19C99"/>
<path d="M1283.93 767.651H884V601H1283.93V767.651Z" fill="#E19C99"/>
<path d="M841.926 767.651H442V601H841.926V767.651Z" fill="#E19C99"/>
<path d="M399.926 767.651H0V601H399.926V767.651Z" fill="#E19C99"/>
</svg>
