<svg width="1144" height="765" viewBox="0 0 1144 765" fill="none" xmlns="http://www.w3.org/2000/svg">
<path d="M265.352 81.2451H0.658203V7.62939e-05H265.352V81.2451Z" fill="#E19C99"/>
<path d="M850.677 178.922H585.982V97.6768H850.677V178.922Z" fill="#E19C99"/>
<path d="M558.015 178.922H293.321V97.6768H558.015V178.922Z" fill="#E19C99"/>
<path d="M265.352 178.922H0.658203V97.6768H265.352V178.922Z" fill="#E19C99"/>
<path d="M1143.34 276.599H878.644V195.354H1143.34V276.599Z" fill="#E19C99"/>
<path d="M850.677 276.599H585.982V195.354H850.677V276.599Z" fill="#E19C99"/>
<path d="M558.015 276.599H293.321V195.354H558.015V276.599Z" fill="#E19C99"/>
<path d="M265.352 276.599H0.658203V195.354H265.352V276.599Z" fill="#E19C99"/>
<path d="M1143.34 374.275H878.644V293.03H1143.34V374.275Z" fill="#E19C99"/>
<path d="M850.677 374.275H585.982V293.03H850.677V374.275Z" fill="#E19C99"/>
<path d="M558.015 374.275H293.321V293.03H558.015V374.275Z" fill="#E19C99"/>
<path d="M265.352 374.275H0.658203V293.03H265.352V374.275Z" fill="#E19C99"/>
<path d="M559.015 471.952H294.321V390.707H559.015V471.952Z" fill="#E19C99"/>
<path d="M265.352 471.952H0.658203V390.707H265.352V471.952Z" fill="#E19C99"/>
<path d="M265.352 569.628H0.658203V488.383H265.352V569.628Z" fill="#E19C99"/>
<path d="M1143.34 667.305H878.644V586.06H1143.34V667.305Z" fill="#E19C99"/>
<path d="M850.677 667.305H585.982V586.06H850.677V667.305Z" fill="#E19C99"/>
<path d="M558.015 667.305H293.321V586.06H558.015V667.305Z" fill="#E19C99"/>
<path d="M265.352 667.305H0.658203V586.06H265.352V667.305Z" fill="#E19C99"/>
<path d="M850.677 764.981H585.982V683.736H850.677V764.981Z" fill="#E19C99"/>
<path d="M558.015 764.981H293.321V683.736H558.015V764.981Z" fill="#E19C99"/>
<path d="M265.352 764.981H0.658203V683.736H265.352V764.981Z" fill="#E19C99"/>
</svg>
