<svg width="1143" height="765" viewBox="0 0 1143 765" fill="none" xmlns="http://www.w3.org/2000/svg">
<path d="M265.015 569.628H0.321289V488.383H265.015V569.628Z" fill="#E19C99"/>
<path d="M850.338 471.952H585.644V390.707H850.338V471.952Z" fill="#E19C99"/>
<path d="M850.338 569.628H585.644V488.383H850.338V569.628Z" fill="#E19C99"/>
<path d="M557.677 471.952H292.982V390.707H557.677V471.952Z" fill="#E19C99"/>
<path d="M557.677 569.628H292.982V488.383H557.677V569.628Z" fill="#E19C99"/>
<path d="M1143 471.952H878.307V390.707H1143V471.952Z" fill="#E19C99"/>
<path d="M1143 569.628H878.307V488.383H1143V569.628Z" fill="#E19C99"/>
<path d="M850.338 764.981H585.644V683.736H850.338V764.981Z" fill="#E19C99"/>
<path d="M1143 764.981H878.307V683.736H1143V764.981Z" fill="#E19C99"/>
<path d="M1143 374.275H878.307V293.03H1143V374.275Z" fill="#E19C99"/>
<path d="M1143 276.599H878.307V195.354H1143V276.599Z" fill="#E19C99"/>
<path d="M850.338 178.922H585.644V97.6768H850.338V178.922Z" fill="#E19C99"/>
<path d="M1143 178.922H878.307V97.6768H1143V178.922Z" fill="#E19C99"/>
<path d="M265.015 81.2451H0.321289V7.62939e-05H265.015V81.2451Z" fill="#E19C99"/>
<path d="M850.338 81.2451H585.644V7.62939e-05H850.338V81.2451Z" fill="#E19C99"/>
<path d="M557.677 81.2451H292.982V7.62939e-05H557.677V81.2451Z" fill="#E19C99"/>
<path d="M1143 81.2451H878.307V7.62939e-05H1143V81.2451Z" fill="#E19C99"/>
<path d="M1142.69 667.245H878V586H1142.69V667.245Z" fill="#E19C99"/>
</svg>
