<svg width="1511" height="765" viewBox="0 0 1511 765" fill="none" xmlns="http://www.w3.org/2000/svg">
<path d="M854.378 108.976H656.57V0.000656128H854.378V108.976Z" fill="#E19C99"/>
<path d="M635.669 108.976H437.861V0.000656128H635.669V108.976Z" fill="#E19C99"/>
<path d="M416.962 108.976H219.154V0.000656128H416.962V108.976Z" fill="#E19C99"/>
<path d="M198.255 108.976H0.447266V0.000656128H198.255V108.976Z" fill="#E19C99"/>
<path d="M1291.79 239.99H1093.98V131.015H1291.79V239.99Z" fill="#E19C99"/>
<path d="M1073.08 239.99H875.277V131.015H1073.08V239.99Z" fill="#E19C99"/>
<path d="M854.378 239.99H656.57V131.015H854.378V239.99Z" fill="#E19C99"/>
<path d="M635.669 239.99H437.861V131.015H635.669V239.99Z" fill="#E19C99"/>
<path d="M416.962 239.99H219.154V131.015H416.962V239.99Z" fill="#E19C99"/>
<path d="M198.255 239.99H0.447266V131.015H198.255V239.99Z" fill="#E19C99"/>
<path d="M1073.08 371.004H875.277V262.029H1073.08V371.004Z" fill="#E19C99"/>
<path d="M854.378 371.004H656.57V262.029H854.378V371.004Z" fill="#E19C99"/>
<path d="M635.669 371.004H437.861V262.029H635.669V371.004Z" fill="#E19C99"/>
<path d="M416.962 371.004H219.154V262.029H416.962V371.004Z" fill="#E19C99"/>
<path d="M198.255 371.004H0.447266V262.029H198.255V371.004Z" fill="#E19C99"/>
<path d="M1291.79 502.019H1093.98V393.044H1291.79V502.019Z" fill="#E19C99"/>
<path d="M1073.08 502.019H875.277V393.044H1073.08V502.019Z" fill="#E19C99"/>
<path d="M854.378 502.019H656.57V393.044H854.378V502.019Z" fill="#E19C99"/>
<path d="M635.669 502.019H437.861V393.044H635.669V502.019Z" fill="#E19C99"/>
<path d="M416.962 502.019H219.154V393.044H416.962V502.019Z" fill="#E19C99"/>
<path d="M198.255 502.019H0.447266V393.044H198.255V502.019Z" fill="#E19C99"/>
<path d="M1510.5 633.035H1312.69V524.06H1510.5V633.035Z" fill="#E19C99"/>
<path d="M1291.79 633.035H1093.98V524.06H1291.79V633.035Z" fill="#E19C99"/>
<path d="M1073.08 633.035H875.277V524.06H1073.08V633.035Z" fill="#E19C99"/>
<path d="M854.378 633.035H656.57V524.06H854.378V633.035Z" fill="#E19C99"/>
<path d="M635.669 633.035H437.861V524.06H635.669V633.035Z" fill="#E19C99"/>
<path d="M416.962 633.035H219.154V524.06H416.962V633.035Z" fill="#E19C99"/>
<path d="M198.255 633.035H0.447266V524.06H198.255V633.035Z" fill="#E19C99"/>
<path d="M635.669 764.049H437.861V655.074H635.669V764.049Z" fill="#E19C99"/>
<path d="M416.962 764.049H219.154V655.074H416.962V764.049Z" fill="#E19C99"/>
<path d="M198.255 764.049H0.447266V655.074H198.255V764.049Z" fill="#E19C99"/>
</svg>
