<svg width="855" height="765" viewBox="0 0 855 765" fill="none" xmlns="http://www.w3.org/2000/svg">
<path d="M198.378 764.049H0.570312V655.074H198.378V764.049Z" fill="#E19C99"/>
<path d="M417.085 764.049H219.277V655.074H417.085V764.049Z" fill="#E19C99"/>
<path d="M635.792 371.004H437.984V262.029H635.792V371.004Z" fill="#E19C99"/>
<path d="M854.501 371.004H656.693V262.029H854.501V371.004Z" fill="#E19C99"/>
<path d="M635.792 764.049H437.984V655.074H635.792V764.049Z" fill="#E19C99"/>
<path d="M854.501 764.049H656.693V655.074H854.501V764.049Z" fill="#E19C99"/>
<path d="M854.501 502.018H656.693V393.043H854.501V502.018Z" fill="#E19C99"/>
<path d="M854.501 239.99H656.693V131.015H854.501V239.99Z" fill="#E19C99"/>
<path d="M417.085 108.975H219.277V0.000488281H417.085V108.975Z" fill="#E19C99"/>
<path d="M635.792 108.975H437.984V0.000488281H635.792V108.975Z" fill="#E19C99"/>
<path d="M854.501 108.975H656.693V0.000488281H854.501V108.975Z" fill="#E19C99"/>
</svg>
