<svg width="1511" height="768" viewBox="0 0 1511 768" fill="none" xmlns="http://www.w3.org/2000/svg">
<path d="M1292.29 166.651H1094.48V-4.54008e-05H1292.29V166.651Z" fill="#E19C99"/>
<path d="M1073.58 166.651H875.777V-4.54008e-05H1073.58V166.651Z" fill="#E19C99"/>
<path d="M854.878 166.651H657.07V-4.54008e-05H854.878V166.651Z" fill="#E19C99"/>
<path d="M417.462 166.651H219.654V-4.54008e-05H417.462V166.651Z" fill="#E19C99"/>
<path d="M198.755 166.651H0.947266V-4.54008e-05H198.755V166.651Z" fill="#E19C99"/>
<path d="M1511 367.008H1313.19V200.356H1511V367.008Z" fill="#E19C99"/>
<path d="M1292.29 367.008H1094.48V200.356H1292.29V367.008Z" fill="#E19C99"/>
<path d="M1073.58 367.008H875.777V200.356H1073.58V367.008Z" fill="#E19C99"/>
<path d="M854.878 367.008H657.07V200.356H854.878V367.008Z" fill="#E19C99"/>
<path d="M636.169 367.008H438.361V200.356H636.169V367.008Z" fill="#E19C99"/>
<path d="M417.462 367.008H219.654V200.356H417.462V367.008Z" fill="#E19C99"/>
<path d="M198.755 367.008H0.947266V200.356H198.755V367.008Z" fill="#E19C99"/>
<path d="M1292.29 567.364H1094.48V400.712H1292.29V567.364Z" fill="#E19C99"/>
<path d="M1073.58 567.364H875.777V400.712H1073.58V567.364Z" fill="#E19C99"/>
<path d="M854.878 567.364H657.07V400.712H854.878V567.364Z" fill="#E19C99"/>
<path d="M636.169 567.364H438.361V400.712H636.169V567.364Z" fill="#E19C99"/>
<path d="M417.462 567.364H219.654V400.712H417.462V567.364Z" fill="#E19C99"/>
<path d="M198.755 567.364H0.947266V400.712H198.755V567.364Z" fill="#E19C99"/>
<path d="M854.878 767.72H657.07V601.068H854.878V767.72Z" fill="#E19C99"/>
<path d="M636.169 767.72H438.361V601.068H636.169V767.72Z" fill="#E19C99"/>
<path d="M417.462 767.72H219.654V601.068H417.462V767.72Z" fill="#E19C99"/>
<path d="M198.755 767.72H0.947266V601.068H198.755V767.72Z" fill="#E19C99"/>
<path d="M636.169 166.651H438.361V-4.54008e-05H636.169V166.651Z" fill="#E19C99"/>
</svg>
