<svg width="1509" height="768" viewBox="0 0 1509 768" fill="none" xmlns="http://www.w3.org/2000/svg">
<path d="M200.45 109.499H2.89844V7.62939e-06H200.45V109.499Z" fill="#E19C99"/>
<path d="M637.552 241.143H440V131.645H637.552V241.143Z" fill="#E19C99"/>
<path d="M416.638 241.143H219.086V131.645H416.638V241.143Z" fill="#E19C99"/>
<path d="M198.212 241.143H0.660156V131.645H198.212V241.143Z" fill="#E19C99"/>
<path d="M1071.55 372.499H874V263H1071.55V372.499Z" fill="#E19C99"/>
<path d="M855.552 372.499H658V263H855.552V372.499Z" fill="#E19C99"/>
<path d="M637.552 373.499H440V264H637.552V373.499Z" fill="#E19C99"/>
<path d="M418.552 372.499H221V263H418.552V372.499Z" fill="#E19C99"/>
<path d="M197.552 373.499H0V264H197.552V373.499Z" fill="#E19C99"/>
<path d="M1508.76 504.432H1311.21V394.933H1508.76V504.432Z" fill="#E19C99"/>
<path d="M1290.34 504.432H1092.79V394.933H1290.34V504.432Z" fill="#E19C99"/>
<path d="M1071.55 504.499H874V395H1071.55V504.499Z" fill="#E19C99"/>
<path d="M855.552 504.499H658V395H855.552V504.499Z" fill="#E19C99"/>
<path d="M637.552 504.499H440V395H637.552V504.499Z" fill="#E19C99"/>
<path d="M418.552 504.499H221V395H418.552V504.499Z" fill="#E19C99"/>
<path d="M197.552 507.499H0V398H197.552V507.499Z" fill="#E19C99"/>
<path d="M1508.76 636.076H1311.21V526.577H1508.76V636.076Z" fill="#E19C99"/>
<path d="M1290.34 636.076H1092.79V526.577H1290.34V636.076Z" fill="#E19C99"/>
<path d="M1071.91 636.076H874.361V526.577H1071.91V636.076Z" fill="#E19C99"/>
<path d="M853.489 636.076H655.938V526.577H853.489V636.076Z" fill="#E19C99"/>
<path d="M635.063 636.076H437.512V526.577H635.063V636.076Z" fill="#E19C99"/>
<path d="M416.638 636.076H219.086V526.577H416.638V636.076Z" fill="#E19C99"/>
<path d="M198.212 636.076H0.660156V526.577H198.212V636.076Z" fill="#E19C99"/>
<path d="M1508.76 767.72H1311.21V658.222H1508.76V767.72Z" fill="#E19C99"/>
<path d="M1290.34 767.72H1092.79V658.222H1290.34V767.72Z" fill="#E19C99"/>
<path d="M1071.91 767.72H874.361V658.222H1071.91V767.72Z" fill="#E19C99"/>
<path d="M853.489 767.72H655.938V658.222H853.489V767.72Z" fill="#E19C99"/>
<path d="M635.063 767.72H437.512V658.222H635.063V767.72Z" fill="#E19C99"/>
<path d="M416.638 767.72H219.086V658.222H416.638V767.72Z" fill="#E19C99"/>
<path d="M198.212 767.72H0.660156V658.222H198.212V767.72Z" fill="#E19C99"/>
</svg>
