<svg width="1290" height="372" viewBox="0 0 1290 372" fill="none" xmlns="http://www.w3.org/2000/svg">
<path d="M197.876 109.499H0.324219V7.62939e-06H197.876V109.499Z" fill="#E19C99"/>
<path d="M634.724 109.499H437.172V7.62939e-06H634.724V109.499Z" fill="#E19C99"/>
<path d="M416.3 109.499H218.748V7.62939e-06H416.3V109.499Z" fill="#E19C99"/>
<path d="M853.149 109.499H655.598V7.62939e-06H853.149V109.499Z" fill="#E19C99"/>
<path d="M1071.58 109.499H874.023V7.62939e-06H1071.58V109.499Z" fill="#E19C99"/>
<path d="M1290 109.499H1092.45V7.62939e-06H1290V109.499Z" fill="#E19C99"/>
<path d="M632.489 241.143H434.938V131.645H632.489V241.143Z" fill="#E19C99"/>
<path d="M850.913 241.143H653.361V131.645H850.913V241.143Z" fill="#E19C99"/>
<path d="M1069.34 241.143H871.787V131.645H1069.34V241.143Z" fill="#E19C99"/>
<path d="M1287.76 241.143H1090.21V131.645H1287.76V241.143Z" fill="#E19C99"/>
<path d="M1069.55 371.499H872V262H1069.55V371.499Z" fill="#E19C99"/>
<path d="M1287.55 371.499H1090V262H1287.55V371.499Z" fill="#E19C99"/>
</svg>
